<?xml version="1.0" encoding="UTF-8"?>
<svg id="Layer_1" data-name="Layer 1" xmlns="http://www.w3.org/2000/svg" xmlns:xlink="http://www.w3.org/1999/xlink" version="1.1" viewBox="0 0 504 180">
  <defs>
    <style>
      .cls-1 {
        fill: #595959;
      }

      .cls-1, .cls-2, .cls-3 {
        stroke-width: 0px;
      }

      .cls-4 {
        clip-path: url(#clippath);
      }

      .cls-2, .cls-5, .cls-6, .cls-7, .cls-8, .cls-9 {
        fill: none;
      }

      .cls-10 {
        stroke: #fff;
      }

      .cls-10, .cls-5, .cls-7, .cls-11, .cls-8, .cls-9 {
        stroke-linejoin: round;
      }

      .cls-10, .cls-7, .cls-8, .cls-9 {
        stroke-width: 1.1px;
      }

      .cls-10, .cls-11, .cls-9 {
        stroke-linecap: round;
      }

      .cls-10, .cls-3 {
        fill: #fff;
      }

      .cls-5 {
        stroke-width: .5px;
      }

      .cls-5, .cls-8 {
        stroke: #ebebeb;
      }

      .cls-6 {
        stroke: #6ebbe8;
        stroke-miterlimit: 10;
      }

      .cls-12 {
        font-size: 11px;
      }

      .cls-12, .cls-11, .cls-13 {
        fill: #000;
      }

      .cls-12, .cls-13, .cls-14 {
        font-family: ArialMT, Arial;
        isolation: isolate;
      }

      .cls-7, .cls-9 {
        stroke: #333;
      }

      .cls-15 {
        clip-path: url(#clippath-1);
      }

      .cls-16 {
        clip-path: url(#clippath-2);
      }

      .cls-11 {
        stroke: #000;
        stroke-width: .7px;
      }

      .cls-13 {
        font-size: 11px;
      }

      .cls-17 {
        fill: #00a7e4;
        font-family: MyriadPro-Regular, 'Myriad Pro';
        font-size: 14px;
      }

      .cls-18 {
        letter-spacing: .7em;
      }

      .cls-14 {
        fill: #4d4d4d;
        font-size: 8.8px;
      }
    </style>
    <clipPath id="clippath">
      <rect class="cls-2" width="504" height="180"/>
    </clipPath>
    <clipPath id="clippath-1">
      <rect class="cls-2" x="35.7" y="5.5" width="462.8" height="142.8"/>
    </clipPath>
    <clipPath id="clippath-2">
      <rect class="cls-2" width="504" height="180"/>
    </clipPath>
  </defs>
  <rect class="cls-3" width="504" height="180"/>
  <g class="cls-4">
    <rect class="cls-10" width="504" height="180"/>
  </g>
  <g class="cls-15">
    <g>
      <rect class="cls-3" x="35.7" y="5.5" width="462.8" height="142.8"/>
      <line class="cls-5" x1="35.7" y1="121.8" x2="498.5" y2="121.8"/>
      <line class="cls-5" x1="35.7" y1="81.9" x2="498.5" y2="81.9"/>
      <line class="cls-5" x1="35.7" y1="41.9" x2="498.5" y2="41.9"/>
      <line class="cls-5" x1="100.2" y1="148.3" x2="100.2" y2="5.5"/>
      <line class="cls-5" x1="211.5" y1="148.3" x2="211.5" y2="5.5"/>
      <line class="cls-5" x1="322.8" y1="148.3" x2="322.8" y2="5.5"/>
      <line class="cls-5" x1="434.1" y1="148.3" x2="434.1" y2="5.5"/>
      <line class="cls-8" x1="35.7" y1="141.8" x2="498.5" y2="141.8"/>
      <line class="cls-8" x1="35.7" y1="101.8" x2="498.5" y2="101.8"/>
      <line class="cls-8" x1="35.7" y1="61.9" x2="498.5" y2="61.9"/>
      <line class="cls-8" x1="35.7" y1="22" x2="498.5" y2="22"/>
      <line class="cls-8" x1="44.5" y1="148.3" x2="44.5" y2="5.5"/>
      <line class="cls-8" x1="155.8" y1="148.3" x2="155.8" y2="5.5"/>
      <line class="cls-8" x1="267.1" y1="148.3" x2="267.1" y2="5.5"/>
      <line class="cls-8" x1="378.4" y1="148.3" x2="378.4" y2="5.5"/>
      <line class="cls-8" x1="489.7" y1="148.3" x2="489.7" y2="5.5"/>
      <circle class="cls-11" cx="66.8" cy="25.3" r="1.9"/>
      <circle class="cls-11" cx="89" cy="118.4" r="1.9"/>
      <circle class="cls-11" cx="111.3" cy="122.4" r="1.9"/>
      <circle class="cls-11" cx="133.6" cy="129.1" r="1.9"/>
      <circle class="cls-11" cx="155.8" cy="136.2" r="1.9"/>
      <circle class="cls-11" cx="178.1" cy="137.6" r="1.9"/>
      <circle class="cls-11" cx="200.3" cy="139.2" r="1.9"/>
      <circle class="cls-11" cx="222.6" cy="139.5" r="1.9"/>
      <circle class="cls-11" cx="244.9" cy="139.9" r="1.9"/>
      <circle class="cls-11" cx="267.1" cy="140.1" r="2"/>
      <circle class="cls-11" cx="289.4" cy="140.2" r="2"/>
      <circle class="cls-11" cx="311.6" cy="140.3" r="2"/>
      <circle class="cls-11" cx="333.9" cy="140.4" r="2"/>
      <circle class="cls-11" cx="356.2" cy="140.5" r="2"/>
      <circle class="cls-11" cx="378.4" cy="140.7" r="2"/>
      <circle class="cls-11" cx="400.7" cy="140.8" r="2"/>
      <circle class="cls-11" cx="422.9" cy="141" r="2"/>
      <circle class="cls-11" cx="445.2" cy="141.1" r="2"/>
      <circle class="cls-11" cx="467.5" cy="141.4" r="2"/>
      <rect class="cls-1" x="56.8" y="25.3" width="20" height="116.5"/>
      <rect class="cls-1" x="79" y="118.4" width="20" height="23.4"/>
      <rect class="cls-1" x="101.3" y="122.4" width="20" height="19.4"/>
      <rect class="cls-1" x="123.5" y="129.1" width="20" height="12.7"/>
      <rect class="cls-1" x="145.8" y="136.2" width="20" height="5.6"/>
      <rect class="cls-1" x="168.1" y="137.6" width="20" height="4.2"/>
      <rect class="cls-1" x="190.3" y="139.2" width="20" height="2.6"/>
      <rect class="cls-1" x="212.6" y="139.5" width="20" height="2.3"/>
      <rect class="cls-1" x="234.8" y="139.9" width="20" height="1.8"/>
      <rect class="cls-1" x="257.1" y="140.1" width="20" height="1.7"/>
      <rect class="cls-1" x="279.4" y="140.2" width="20" height="1.6"/>
      <rect class="cls-1" x="301.6" y="140.3" width="20" height="1.5"/>
      <rect class="cls-1" x="323.9" y="140.4" width="20" height="1.3"/>
      <rect class="cls-1" x="346.1" y="140.5" width="20" height="1.3"/>
      <rect class="cls-1" x="368.4" y="140.7" width="20" height="1.1"/>
      <rect class="cls-1" x="390.7" y="140.8" width="20" height=".9"/>
      <rect class="cls-1" x="412.9" y="141" width="20" height=".8"/>
      <rect class="cls-1" x="435.2" y="141.1" width="20" height=".6"/>
      <rect class="cls-1" x="457.5" y="141.4" width="20" height=".4"/>
      <text class="cls-13" transform="translate(56 21.3)"><tspan x="0" y="0">0.58</tspan></text>
      <text class="cls-13" transform="translate(78.3 114.4)"><tspan x="0" y="0">0.12</tspan></text>
      <text class="cls-13" transform="translate(103.6 118.4)"><tspan x="0" y="0">0.1</tspan></text>
      <text class="cls-13" transform="translate(122.8 125.1)"><tspan x="0" y="0">0.06</tspan></text>
      <text class="cls-13" transform="translate(145.1 132.3)"><tspan x="0" y="0">0.03</tspan></text>
      <text class="cls-13" transform="translate(167.3 133.6)"><tspan x="0" y="0">0.02</tspan></text>
      <text class="cls-13" transform="translate(189.6 135.2)"><tspan x="0" y="0">0.01</tspan></text>
      <text class="cls-13" transform="translate(211.8 135.6)"><tspan x="0" y="0">0.01</tspan></text>
      <text class="cls-13" transform="translate(234.1 136)"><tspan x="0" y="0">0.01</tspan></text>
      <text class="cls-13" transform="translate(256.4 136.1)"><tspan x="0" y="0">0.01</tspan></text>
      <text class="cls-13" transform="translate(278.6 136.3)"><tspan x="0" y="0">0.01</tspan></text>
      <text class="cls-13" transform="translate(300.9 136.3)"><tspan x="0" y="0">0.01</tspan></text>
      <text class="cls-13" transform="translate(323.2 136.5)"><tspan x="0" y="0">0.01</tspan></text>
      <text class="cls-13" transform="translate(345.4 136.6)"><tspan x="0" y="0">0.01</tspan></text>
      <text class="cls-13" transform="translate(367.7 136.7)"><tspan x="0" y="0">0.01</tspan></text>
      <text class="cls-13" transform="translate(397.6 136.9)"><tspan x="0" y="0">0</tspan></text>
      <text class="cls-13" transform="translate(419.9 137)"><tspan x="0" y="0">0</tspan></text>
      <text class="cls-13" transform="translate(442.1 137.2)"><tspan x="0" y="0">0</tspan></text>
      <text class="cls-13" transform="translate(464.4 137.4)"><tspan x="0" y="0">0</tspan></text>
      <rect class="cls-9" x="35.7" y="5.5" width="462.8" height="142.8"/>
    </g>
  </g>
  <g class="cls-16">
    <g>
      <text class="cls-14" transform="translate(18.5 144.9)"><tspan x="0" y="0">0.0</tspan></text>
      <text class="cls-14" transform="translate(18.5 105)"><tspan x="0" y="0">0.2</tspan></text>
      <text class="cls-14" transform="translate(18.5 65)"><tspan x="0" y="0">0.4</tspan></text>
      <text class="cls-14" transform="translate(18.5 25.1)"><tspan x="0" y="0">0.6</tspan></text>
      <line class="cls-7" x1="33" y1="141.8" x2="35.7" y2="141.8"/>
      <line class="cls-7" x1="33" y1="101.8" x2="35.7" y2="101.8"/>
      <line class="cls-7" x1="33" y1="61.9" x2="35.7" y2="61.9"/>
      <line class="cls-7" x1="33" y1="22" x2="35.7" y2="22"/>
      <line class="cls-7" x1="44.5" y1="151" x2="44.5" y2="148.3"/>
      <line class="cls-7" x1="155.8" y1="151" x2="155.8" y2="148.3"/>
      <line class="cls-7" x1="267.1" y1="151" x2="267.1" y2="148.3"/>
      <line class="cls-7" x1="378.4" y1="151" x2="378.4" y2="148.3"/>
      <line class="cls-7" x1="489.7" y1="151" x2="489.7" y2="148.3"/>
      <text class="cls-14" transform="translate(42.1 159.5)"><tspan x="0" y="0">0</tspan></text>
      <text class="cls-14" transform="translate(153.4 159.5)"><tspan x="0" y="0">5</tspan></text>
      <text class="cls-14" transform="translate(262.2 159.5)"><tspan x="0" y="0">10</tspan></text>
      <text class="cls-14" transform="translate(373.5 159.5)"><tspan x="0" y="0">15</tspan></text>
      <text class="cls-14" transform="translate(484.8 159.5)"><tspan x="0" y="0">20</tspan></text>
      <text class="cls-12" transform="translate(216.1 172.1)"><tspan x="0" y="0">Principal Component</tspan></text>
      <text class="cls-12" transform="translate(13.3 123.9) rotate(-90)"><tspan class="cls-18" x="0" y="0">Varianc</tspan><tspan x="87.8" y="0">e </tspan></text>
    </g>
  </g>
  <rect class="cls-6" x="50.9" y="9.8" width="94.6" height="135.1"/>
  <text class="cls-17" transform="translate(162.5 38.5)"><tspan x="0" y="0">Cumulative Explained </tspan><tspan x="0" y="16.8">Variance PC 1-4: 0.86</tspan></text>
</svg>